Coordinates
nRows=127
nColumns=2
inDegrees=yes
endheader
time	ankle_angle_r	
2.79133	 -5.163261	
2.8629	 -5.267867	
2.93448	 -5.250833	
3.00605	 -5.205539	
3.07762	 -5.216818	
3.14919	 -5.197642	
3.22077	 -5.159552	
3.29234	 -5.180570	
3.36391	 -5.166467	
3.43548	 -5.161303	
3.50706	 -5.180025	
3.57863	 -5.128103	
3.6502	 -5.147632	
3.72177	 -5.199316	
3.79335	 -5.162695	
3.86492	 -5.122567	
3.93649	 -5.159661	
4.00806	 -5.255543	
4.07964	 -5.212977	
4.15121	 -5.111901	
4.22278	 -5.142273	
4.29435	 -5.176144	
4.36593	 -5.189041	
4.4375	 -5.196861	
4.50907	 -5.187009	
4.58065	 -5.202774	
4.65222	 -5.221460	
4.72379	 -5.218380	
4.79536	 -5.206906	
4.86694	 -5.213331	
4.93851	 -5.174435	
5.01008	 -5.105329	
5.08165	 -5.132722	
5.15323	 -5.214899	
5.2248	 -5.201045	
5.29637	 -5.109691	
5.36794	 -5.098590	
5.43952	 -5.143455	
5.51109	 -5.180754	
5.58266	 -5.196489	
5.65423	 -5.191155	
5.72581	 -5.247797	
5.79738	 -5.277608	
5.86895	 -5.239126	
5.94052	 -5.244527	
6.0121	 -5.274244	
6.08367	 -5.274204	
6.15524	 -5.244923	
6.22681	 -5.220662	
6.29839	 -5.214453	
6.36996	 -5.253519	
6.44153	 -5.254334	
6.5131	 -5.131587	
6.58468	 -5.101631	
6.65625	 -5.167682	
6.72782	 -5.118818	
6.7994	 -5.063068	
6.87097	 -5.115359	
6.94254	 -5.168501	
7.01411	 -5.158273	
7.08569	 -5.161562	
7.15726	 -5.227136	
7.22883	 -5.287134	
7.3004	 -5.269305	
7.37198	 -5.225639	
7.44355	 -5.245742	
7.51512	 -5.286013	
7.58669	 -5.294175	
7.65827	 -5.273764	
7.72984	 -5.250303	
7.80141	 -5.267422	
7.87298	 -5.258410	
7.94456	 -5.217904	
8.01613	 -5.228173	
8.0877	 -5.189598	
8.15927	 -5.100366	
8.23085	 -5.087780	
8.30242	 -5.076377	
8.37399	 -5.075696	
8.44556	 -5.165661	
8.51714	 -5.205423	
8.58871	 -5.199439	
8.66028	 -5.267483	
8.73185	 -5.285638	
8.80343	 -5.231938	
8.875	 -5.245622	
8.94657	 -5.289093	
9.01815	 -5.282654	
9.08972	 -5.256409	
9.16129	 -5.260756	
9.23286	 -5.272326	
9.30444	 -5.254158	
9.37601	 -5.212851	
9.44758	 -5.184957	
9.51915	 -5.184240	
9.59073	 -5.161925	
9.6623	 -5.167724	
9.73387	 -5.195026	
9.80544	 -5.151176	
9.87702	 -5.104897	
9.94859	 -5.073713	
10.0202	 -5.074480	
10.0917	 -5.150129	
10.1633	 -5.182244	
10.2349	 -5.157742	
10.3065	 -5.198312	
10.378	 -5.279394	
10.4496	 -5.271614	
10.5212	 -5.251273	
10.5927	 -5.284328	
10.6643	 -5.246884	
10.7359	 -5.229512	
10.8075	 -5.222802	
10.879	 -5.139512	
10.9506	 -5.170332	
11.0222	 -5.230626	
11.0937	 -5.183379	
11.1653	 -5.188128	
11.2369	 -5.245451	
11.3085	 -5.212180	
11.38	 -5.129284	
11.4516	 -5.124129	
11.5232	 -5.168245	
11.5948	 -5.230630	
11.6663	 -5.208894	
11.7379	 -5.080909	
11.8095	 -5.082059	
